PathFileType	4	(X/Y/Z)	./resultDataOpenSim/trcMotMarkerGrf/sub10/qtm-15-07.trc
DataRate	CameraRate	NumFrames	NumMarkers	Units	OrigDataRate	OrigDataStartFrame	OrigNumFrames
250.000000	250.000000	10	24	m	250.000000	66	520
Frame#	Time	L.Toe.Tip			R.Toe.Tip			L.Ankle.Lat			R.Ankle.Lat			L.Ankle.Med			R.Ankle.Med			L.Heel			R.Heel			L.Knee.Lat			R.Knee.Lat			L.Knee.Med			R.Knee.Med			L.Thigh.Upper			R.Thigh.Upper			L.ASIS			R.ASIS			V.Sacral			L.Acromium			R.Acromium			C7			L.Elbow			R.Elbow			L.Wrist.Lat			R.Wrist.Lat
		X1	Y1	Z1	X2	Y2	Z2	X3	Y3	Z3	X4	Y4	Z4	X5	Y5	Z5	X6	Y6	Z6	X7	Y7	Z7	X8	Y8	Z8	X9	Y9	Z9	X10	Y10	Z10	X11	Y11	Z11	X12	Y12	Z12	X13	Y13	Z13	X14	Y14	Z14	X15	Y15	Z15	X16	Y16	Z16	X17	Y17	Z17	X18	Y18	Z18	X19	Y19	Z19	X20	Y20	Z20	X21	Y21	Z21	X22	Y22	Z22	X23	Y23	Z23	X24	Y24	Z24

66	0.26	-1.3802542	0.073267496	-0.18421594	-0.72664661	0.038819254	-0.035598291	-1.3601143	0.20875601	-0.22264202	-0.86284506	0.052757187	0.010561604	-1.3307874	0.20015416	-0.14458443	-0.85305022	0.08020326	-0.075892791	-1.389995	0.26281978	-0.17190863	-0.91997252	0.028356407	-0.033787649	-1.0423713	0.40298503	-0.25500695	-0.83601255	0.45167589	0.044160008	-1.0128119	0.36111922	-0.14290777	-0.84758895	0.46037975	-0.084575166	-1.0012157	0.77334704	-0.26312275	-0.93435031	0.8597711	0.11224736	-0.93662725	0.88942754	-0.21442261	-0.88914251	0.93657997	0.019837625	-1.1140724	0.92443117	-0.063103511	-0.99369355	1.3849918	-0.25016897	-1.0285658	1.3761381	0.073059793	-1.0965929	1.4058714	-0.097404031	-1.0397349	1.0347937	-0.28767945	-1.1523343	1.0524225	0.10822877	-0.82766425	0.90440047	-0.27953083	-1.0587717	0.83160564	0.15901199
67	0.264	-1.3691302	0.074997833	-0.18510302	-0.72665819	0.038801528	-0.035691001	-1.3494341	0.21074076	-0.2231639	-0.8628434	0.052767976	0.010510736	-1.3204039	0.20209909	-0.14493183	-0.85288105	0.08013842	-0.076061166	-1.3800405	0.26470272	-0.17284672	-0.92003016	0.028322461	-0.033829266	-1.0311929	0.40339343	-0.2550104	-0.83413394	0.45140869	0.044328882	-1.0025539	0.36213294	-0.14236856	-0.84462821	0.4603461	-0.084425257	-0.99523675	0.77417371	-0.26295228	-0.92997466	0.86002455	0.11261145	-0.93175968	0.89017131	-0.21464346	-0.88408436	0.93692881	0.020205145	-1.1094274	0.92478697	-0.063386126	-0.98838474	1.3856639	-0.24988915	-1.0229628	1.3767423	0.073368588	-1.0913447	1.4067751	-0.096949433	-1.0352369	1.0356819	-0.28724844	-1.1453539	1.0522737	0.10953737	-0.82499658	0.90278417	-0.28031392	-1.0503616	0.83206741	0.16001414
68	0.268	-1.3575017	0.076447926	-0.1857793	-0.72668721	0.038796155	-0.035758229	-1.3385799	0.21255496	-0.22364963	-0.86284127	0.052775863	0.010465648	-1.3098541	0.20404697	-0.1452721	-0.85276206	0.080079224	-0.076208067	-1.3702834	0.26644833	-0.17434245	-0.92008615	0.028293469	-0.03386611	-1.0199815	0.40399944	-0.25487531	-0.83230984	0.4511698	0.044436494	-0.99237971	0.36321926	-0.14174733	-0.84201394	0.46025899	-0.084278568	-0.9894631	0.77507501	-0.26279865	-0.92576534	0.86030129	0.11292416	-0.92675097	0.89112742	-0.21484735	-0.87917619	0.93733826	0.020590684	-1.1045957	0.92511697	-0.06374105	-0.9831418	1.386376	-0.24960548	-1.0175058	1.3773998	0.073698012	-1.0861456	1.4076813	-0.096517149	-1.0308349	1.0366638	-0.28714608	-1.1383365	1.0521665	0.1108621	-0.82243111	0.90117847	-0.28110586	-1.0419941	0.83259184	0.16104645
69	0.272	-1.3452852	0.077713999	-0.18636594	-0.72672977	0.038799939	-0.035799527	-1.3275563	0.21420323	-0.22409196	-0.86283606	0.052780953	0.010428433	-1.299063	0.20595957	-0.14563307	-0.85269369	0.080027809	-0.076328073	-1.3606027	0.26797895	-0.17600021	-0.92013722	0.028272222	-0.033899085	-1.0086484	0.40484034	-0.25467223	-0.83051759	0.45096389	0.044485895	-0.98189315	0.3644476	-0.14123384	-0.83978298	0.46011942	-0.084155687	-0.98391372	0.77606485	-0.26263165	-0.92166278	0.86060051	0.11315865	-0.9215984	0.89224577	-0.215027	-0.87440711	0.93782109	0.021017007	-1.0997259	0.92549486	-0.064175884	-0.97795702	1.3871406	-0.24932241	-1.0121551	1.3781176	0.074026552	-1.0810055	1.4085867	-0.096114756	-1.0265635	1.0377571	-0.28744477	-1.131298	1.0520979	0.11216682	-0.81997187	0.89959133	-0.28190212	-1.0336272	0.83318955	0.16211938
70	0.276	-1.3323687	0.078871421	-0.18701707	-0.72678291	0.038810326	-0.035815518	-1.3163949	0.21568023	-0.22447909	-0.86282756	0.052783455	0.010398522	-1.288003	0.20779584	-0.14601342	-0.8526716	0.079984953	-0.076422956	-1.3508934	0.26919753	-0.17730266	-0.92018145	0.028258438	-0.033928369	-0.99720608	0.40589457	-0.25445231	-0.82874663	0.45077674	0.044542409	-0.97113981	0.36578942	-0.14086417	-0.83775469	0.45996406	-0.084045679	-0.97859715	0.77715552	-0.26244513	-0.91762754	0.86091448	0.11328931	-0.91641227	0.89344175	-0.21522234	-0.86971317	0.93837964	0.021492378	-1.0948923	0.92594713	-0.064663978	-0.97283232	1.3879644	-0.2490479	-1.0068457	1.3788981	0.074324463	-1.0759259	1.4094914	-0.095746885	-1.0223568	1.0389388	-0.28793595	-1.1242988	1.0520677	0.11334192	-0.81761211	0.89802634	-0.28269933	-1.0251727	0.83386634	0.16324067
71	0.28	-1.3187613	0.079941437	-0.18784137	-0.72684519	0.038827286	-0.035810596	-1.3051343	0.2169821	-0.22480747	-0.86281653	0.052784422	0.010372249	-1.2767585	0.209518	-0.14638396	-0.85269052	0.079953282	-0.076497821	-1.3411148	0.27006898	-0.17807133	-0.92021765	0.028249951	-0.033954094	-0.98576025	0.40709787	-0.25424229	-0.8270101	0.4505951	0.044661371	-0.96032553	0.36719023	-0.14057027	-0.83576494	0.45982711	-0.083933271	-0.97349252	0.77834134	-0.26225356	-0.91363379	0.86124621	0.1133154	-0.91131069	0.89466047	-0.21547766	-0.86504798	0.93901125	0.02199704	-1.0901074	0.92646582	-0.065147744	-0.96776322	1.3888408	-0.24878204	-1.0015639	1.3797327	0.074597009	-1.0708991	1.4103974	-0.095418547	-1.0181206	1.0401699	-0.28834281	-1.1174307	1.0520664	0.11421113	-0.81534919	0.89648642	-0.2834967	-1.0165151	0.83461774	0.16438038
72	0.284	-1.3046153	0.080905536	-0.18884183	-0.72691685	0.0388515	-0.035791167	-1.293793	0.21812065	-0.22509296	-0.86280431	0.052786601	0.010344559	-1.2654933	0.21108592	-0.14671156	-0.85274729	0.079936821	-0.076555743	-1.3312865	0.27061188	-0.17848139	-0.92024455	0.02824548	-0.033977642	-0.97440063	0.40839778	-0.2540613	-0.82531446	0.45042095	0.044839844	-0.94957394	0.3686328	-0.14027342	-0.83379567	0.45971665	-0.083818546	-0.96854159	0.77959586	-0.26206389	-0.90964825	0.86162138	0.11328255	-0.90633701	0.89589575	-0.21580232	-0.8604381	0.93971419	0.022501777	-1.0853666	0.92703667	-0.065561118	-0.96273953	1.3897564	-0.24851798	-0.99634593	1.3806101	0.074876589	-1.0659121	1.4113084	-0.095132981	-1.0138188	1.0414304	-0.2885683	-1.1107237	1.0520801	0.11470574	-0.81319529	0.89497534	-0.28429592	-1.0076181	0.83543727	0.16547853
73	0.288	-1.2901353	0.0817308	-0.18992101	-0.72699937	0.038881983	-0.035761385	-1.2823703	0.21911152	-0.22536798	-0.86278968	0.052792092	0.010312437	-1.2542255	0.21246803	-0.14698706	-0.85283938	0.079937299	-0.076595177	-1.3214416	0.27085248	-0.17878371	-0.92026134	0.028245738	-0.034002099	-0.96313487	0.4097787	-0.25390586	-0.8236373	0.45027011	0.045049135	-0.93890792	0.37012816	-0.1399334	-0.83191382	0.45962385	-0.083711464	-0.96367133	0.7808891	-0.26186629	-0.90564038	0.8620697	0.11325661	-0.90145998	0.89716575	-0.21616509	-0.85592197	0.94048723	0.022998523	-1.0806651	0.92766795	-0.065858963	-0.95775691	1.3907072	-0.24825249	-0.99120908	1.3815288	0.075177781	-1.0609518	1.4122313	-0.094885071	-1.0094738	1.0427255	-0.28868597	-1.1040469	1.0521137	0.11506826	-0.8111756	0.89349232	-0.28510428	-0.99860806	0.83631726	0.16650886
74	0.292	-1.2754422	0.082394613	-0.19096591	-0.7270952	0.038916941	-0.03572215	-1.2708613	0.21995434	-0.22565738	-0.86277157	0.052799776	0.010277102	-1.242768	0.21365863	-0.14723213	-0.85296512	0.079952636	-0.076613582	-1.3115801	0.27080272	-0.17911464	-0.92027097	0.028251752	-0.034030741	-0.9519273	0.41123767	-0.25374436	-0.82195559	0.45016223	0.045274934	-0.92830556	0.37168257	-0.13954187	-0.83015059	0.45954414	-0.083617316	-0.9588622	0.78219853	-0.26168092	-0.90161568	0.86258779	0.11326565	-0.89662221	0.89848486	-0.21651751	-0.8514889	0.94132675	0.023501409	-1.0759963	0.92839097	-0.066044636	-0.95281717	1.3916986	-0.24799184	-0.98612956	1.3824932	0.075481167	-1.056009	1.4131753	-0.09466214	-1.005118	1.0440684	-0.28878438	-1.0971934	1.0521943	0.11569297	-0.80931027	0.89203508	-0.28593145	-0.98970303	0.83724101	0.1675084
75	0.296	-1.2605156	0.082902604	-0.1919351	-0.72720764	0.038956261	-0.035672388	-1.2592591	0.22062896	-0.22595967	-0.86275486	0.052807296	0.010242984	-1.2310229	0.21467061	-0.14747553	-0.8531241	0.079979617	-0.076612062	-1.3016368	0.27045454	-0.1794563	-0.92028083	0.028262052	-0.034063596	-0.94076948	0.41275629	-0.25355108	-0.82030642	0.45010363	0.045508547	-0.91771239	0.37329734	-0.13910537	-0.82847456	0.45948163	-0.083529585	-0.95415762	0.78352259	-0.26158165	-0.8976262	0.8631376	0.11328989	-0.89179145	0.89985036	-0.21682247	-0.84709789	0.94222509	0.02403087	-1.0713542	0.92923157	-0.06617813	-0.94792096	1.392732	-0.24774458	-0.98109483	1.3835029	0.075765812	-1.0510779	1.414148	-0.094453464	-1.0007603	1.0454692	-0.2888819	-1.0900748	1.0523428	0.11674312	-0.8075878	0.89061082	-0.28677978	-0.9810413	0.83819157	0.16852594
